<svg width="32" height="25" viewBox="0 0 32 25" fill="none" xmlns="http://www.w3.org/2000/svg">
<path d="M3.75032 13.4115C2.56815 12.8 1.67134 11.944 0.978344 10.8433C0.326114 9.74268 0 8.51975 0 7.17453C0 5.8293 0.326114 4.56561 0.978344 3.50573C1.63057 2.4051 2.56815 1.54905 3.75032 0.937582C4.93249 0.326116 6.23695 0 7.70446 0C9.17198 0 10.5172 0.326116 11.6586 0.937582C12.8408 1.54905 13.7376 2.4051 14.4306 3.50573C15.0828 4.60637 15.4089 5.8293 15.4089 7.17453C15.4089 8.51975 15.0828 9.78345 14.4306 10.8433C13.7784 11.944 12.8408 12.8 11.6586 13.4115C10.4764 14.0229 9.17198 14.3491 7.70446 14.3491C6.23695 14.3491 4.89172 14.0229 3.75032 13.4115ZM9.25351 10.1911C9.70192 9.90574 10.0688 9.4981 10.3541 9.00892C10.6395 8.51975 10.7618 7.90829 10.7618 7.21529C10.7618 6.5223 10.6395 5.91083 10.3541 5.42166C10.0688 4.89172 9.70192 4.52484 9.25351 4.23949C8.8051 3.95414 8.27516 3.83185 7.70446 3.83185C7.13376 3.83185 6.60383 3.95414 6.15542 4.23949C5.70701 4.52484 5.34013 4.93249 5.05478 5.42166C4.76943 5.9516 4.64714 6.5223 4.64714 7.21529C4.64714 7.90829 4.76943 8.51975 5.05478 9.00892C5.34013 9.53886 5.70701 9.90574 6.15542 10.1911C6.60383 10.4764 7.13376 10.5987 7.70446 10.5987C8.27516 10.5987 8.8051 10.4764 9.25351 10.1911Z" fill="#02AC8F"/>
<path d="M20.3414 13.4115C19.1592 12.8 18.2624 11.944 17.5694 10.8433C16.9172 9.74268 16.5911 8.51975 16.5911 7.17453C16.5911 5.8293 16.9172 4.56561 17.5694 3.50573C18.2216 2.4051 19.1592 1.54905 20.3414 0.937582C21.5236 0.326116 22.828 0 24.2955 0C25.763 0 27.1083 0.326116 28.2497 0.937582C29.4318 1.54905 30.3287 2.4051 31.0216 3.50573C31.6739 4.60637 32 5.8293 32 7.17453C32 8.51975 31.6739 9.78345 31.0216 10.8433C30.3694 11.944 29.4318 12.8 28.2497 13.4115C27.0675 14.0229 25.763 14.3491 24.2955 14.3491C22.828 14.3491 21.4828 14.0229 20.3414 13.4115ZM25.8446 10.1911C26.293 9.90574 26.6599 9.4981 26.9452 9.00892C27.2306 8.51975 27.3529 7.90829 27.3529 7.21529C27.3529 6.5223 27.2306 5.91083 26.9452 5.42166C26.6599 4.89172 26.293 4.52484 25.8446 4.23949C25.3962 3.95414 24.8662 3.83185 24.2955 3.83185C23.7248 3.83185 23.1949 3.95414 22.7465 4.23949C22.2981 4.52484 21.9312 4.93249 21.6458 5.42166C21.3605 5.9516 21.2382 6.5223 21.2382 7.21529C21.2382 7.90829 21.3605 8.51975 21.6458 9.00892C21.9312 9.53886 22.2981 9.90574 22.7465 10.1911C23.1949 10.4764 23.7248 10.5987 24.2955 10.5987C24.8662 10.5987 25.3962 10.4764 25.8446 10.1911Z" fill="#02AC8F"/>
<path d="M15.9796 24.8258C11.0879 24.8258 6.76689 22.2169 5.62549 18.5889L9.53887 17.4067C10.028 19.0373 12.637 20.7902 15.9796 20.7902C19.2 20.7902 21.8089 18.9965 22.3796 17.3252L26.2115 18.6704C24.9886 22.2577 20.6675 24.8258 15.9796 24.8258Z" fill="#02AC8F"/>
</svg>
