<svg width="80" height="70" viewBox="0 0 80 70" fill="none" xmlns="http://www.w3.org/2000/svg">
<path d="M40 4.2V12.4C40 12.8 39.7 13.1 39.3 13.1H31.1C30.7 13.1 30.4 12.8 30.4 12.4C30.4 12.2 30.5 12 30.6 11.8L32.9 9.5L33.3 9.1C32.9 8.7 32.5 8.4 32.1 8.1C29.2 5.9 25.9 4.7 22.4 4.7C17.5 4.7 13.1 6.6 9.8 10.2C6.5 13.7 4.7 18.7 4.7 24C4.7 29.7 6.8 34.8 11.6 40.5C16.2 46 23 51.8 30.9 58.6C32.5 59.9 36.3 63.3 36.3 63.3C36.7 63.7 37 64.3 37 64.9C37 66.2 35.9 67.2 34.6 67.2C34 67.2 33.5 67 33.1 66.7C33 66.6 33 66.6 32.9 66.5C31.1 65 29.4 63.5 27.8 62.1C19.7 55.2 12.8 49.3 7.9 43.5C2.5 37 0 30.8 0 24C0 17.5 2.3 11.4 6.3 7C10.4 2.5 16.1 0 22.3 0C26.9 0 31.1 1.5 34.9 4.3C35.5 4.7 36 5.2 36.6 5.8L38.7 3.7C39.2 3.2 40 3.5 40 4.2Z" fill="#02AC8F"/>
<path d="M80.0001 24C80.0001 30.8 77.5001 37 72.1001 43.5C67.2001 49.3 60.3001 55.3 52.2001 62.1C50.6001 63.4 48.9001 64.9 47.2001 66.4L49.5001 68.7C50.0001 69.2 49.6001 70 49.0001 70H40.8001C40.4001 70 40.1001 69.7 40.1001 69.3V61.1C40.1001 60.7 40.4001 60.4 40.8001 60.4C41.0001 60.4 41.2001 60.5 41.4001 60.6L43.7001 62.9L43.9001 63.1C45.8001 61.5 47.5001 60 49.2001 58.6C57.1001 51.9 63.9001 46.1 68.5001 40.5C73.2001 34.8 75.4001 29.7 75.4001 24C75.4001 18.6 73.6001 13.7 70.3001 10.1C67.1001 6.6 62.6001 4.6 57.7001 4.6C54.1001 4.6 50.9001 5.7 48.0001 8C47.8001 8.2 47.6001 8.3 47.4001 8.5L47.3001 8.6C47.2001 8.7 47.1001 8.7 47.0001 8.8C46.6001 9 46.2001 9.2 45.7001 9.2C44.4001 9.2 43.4001 8.2 43.4001 6.9C43.4001 6.3 43.7001 5.7 44.1001 5.2C44.2001 5.1 44.3001 5 44.4001 4.9C44.6001 4.7 44.9001 4.5 45.1001 4.3C48.8001 1.5 53.0001 0 57.7001 0C63.9001 0 69.6001 2.5 73.7001 7C77.8001 11.4 80.0001 17.5 80.0001 24Z" fill="#02AC8F"/>
</svg>
