<svg width="9" height="15" viewBox="0 0 9 15" fill="none" xmlns="http://www.w3.org/2000/svg">
<path d="M8.66685 8.0853L1.99166 14.7604C1.83727 14.9149 1.63118 15 1.41142 15C1.19167 15 0.985572 14.9149 0.831183 14.7604L0.339602 14.2689C0.0197262 13.9487 0.0197262 13.4282 0.339602 13.1084L5.94492 7.50311L0.333381 1.89157C0.178992 1.73706 0.0937488 1.53108 0.0937488 1.31145C0.0937488 1.09158 0.178992 0.885602 0.333381 0.730968L0.824962 0.239632C0.979473 0.0851201 1.18545 -9.54393e-08 1.4052 -1.14651e-07C1.62496 -1.33862e-07 1.83105 0.08512 1.98544 0.239631L8.66685 6.9208C8.82161 7.0758 8.90661 7.28274 8.90612 7.50274C8.90661 7.72359 8.82161 7.93042 8.66685 8.0853Z" fill="white"/>
</svg>
