<svg width="9" height="15" viewBox="0 0 9 15" fill="none" xmlns="http://www.w3.org/2000/svg">
<path d="M0.333149 6.9147L7.00834 0.239633C7.16273 0.0851216 7.36882 2.68812e-07 7.58858 2.30389e-07C7.80833 1.91966e-07 8.01443 0.0851214 8.16882 0.239632L8.6604 0.731092C8.98027 1.05133 8.98027 1.57182 8.6604 1.89157L3.05508 7.49689L8.66662 13.1084C8.82101 13.2629 8.90625 13.4689 8.90625 13.6885C8.90625 13.9084 8.82101 14.1144 8.66662 14.269L8.17504 14.7604C8.02053 14.9149 7.81455 15 7.5948 15C7.37505 15 7.16895 14.9149 7.01456 14.7604L0.333149 8.0792C0.178395 7.92421 0.0933956 7.71726 0.0938839 7.49726C0.0933956 7.27641 0.178395 7.06958 0.333149 6.9147Z" fill="white"/>
</svg>
